<svg width="64" height="64" viewBox="0 0 64 64" fill="none" xmlns="http://www.w3.org/2000/svg">
<g clip-path="url(#clip0_1304_5902)">
<rect width="64" height="64" rx="32" fill="#FADCD6"/>
<path d="M22.4381 81.1428H10.8066V68.7055L22.4381 62.4868V81.1428Z" fill="#EA674D"/>
<path d="M23.0226 61.4573L8.00195 69.6339L8.72154 71.1453L23.7422 62.9687L23.0226 61.4573Z" fill="#191618"/>
<path d="M38.2996 14.4335H22.4385V42.1349H38.2996V14.4335Z" fill="#D03B1D"/>
<path d="M49.9307 42.1349V62.4869H10.8066V57.9642H45.7011V47.2229H10.8066V42.1349H49.9307Z" fill="#D03B1D"/>
<path d="M57.3325 44.9615V62.4868H49.9307V42.1348L57.3325 44.9615Z" fill="#601B0D"/>
<path d="M44.6433 42.1348H38.2988V14.4335L44.6433 16.6948V42.1348Z" fill="#601B0D"/>
<path d="M44.6433 17.2602L38.2988 14.4335V12.1722L44.6433 15.1854V17.2602Z" fill="#475367"/>
<path d="M38.2996 62.4868H22.4385V81.1428H38.2996V62.4868Z" fill="#D03B1D"/>
<path d="M46.2294 62.4868H38.2988V81.1428H46.2294V62.4868Z" fill="#601B0D"/>
<path d="M38.2992 14.4335H20.3232V10.4762L38.2992 12.1722V14.4335Z" fill="#D0D5DD"/>
<path d="M45.7011 47.2229H10.8066V57.9642H45.7011V47.2229Z" fill="#E26E6A"/>
<path d="M53.6324 59.6602H51.5176V45.5269L53.6324 46.6575V59.6602Z" fill="#A32E17"/>
<path d="M42.5299 32.5242H40.415V18.3909L42.5299 19.5215V32.5242Z" fill="#A32E17"/>
<path d="M56.275 54.0068L54.1602 52.8761V46.6575L56.275 47.7881V54.0068Z" fill="#A32E17"/>
<path d="M56.275 59.6602H54.1602V53.4415L56.275 54.5722V59.6602Z" fill="#A32E17"/>
<path d="M29.3113 18.3909H25.6104V31.9589H29.3113V18.3909Z" fill="#E26E6A"/>
<path d="M35.1267 18.3909H31.4258V31.9589H35.1267V18.3909Z" fill="#E26E6A"/>
<g opacity="0.6">
<path d="M49.9307 34.2202H10.8066V42.1349H49.9307V34.2202Z" fill="#D0D5DD"/>
</g>
<g opacity="0.6">
<path d="M57.3315 37.0469V44.9615L49.9297 42.1349V34.2202L57.3315 37.0469Z" fill="#98A2B3"/>
</g>
</g>
<defs>
<clipPath id="clip0_1304_5902">
<rect width="64" height="64" rx="32" fill="white"/>
</clipPath>
</defs>
</svg>
