<svg width="65" height="64" viewBox="0 0 65 64" fill="none" xmlns="http://www.w3.org/2000/svg">
<g clip-path="url(#clip0_1304_5860)">
<rect x="0.5" width="64" height="64" rx="32" fill="#FADCD6"/>
<path d="M31.7168 16.987C31.7168 16.987 33.827 9.28918 37.2358 16.4911C40.6445 23.693 34.8423 37.8829 42.672 50.8444L34.3426 44.3361C34.3426 44.3361 39.5528 23.0869 31.7168 16.9838V16.987Z" fill="#C14F2A"/>
<path d="M27.3382 33.9286L27.5833 28.3182L23.9645 24.5422L17.9395 31.044L18.4742 37.2444L27.3382 33.9286Z" fill="#EC9E88"/>
<path d="M17.9549 12.7832C17.9549 12.7832 10.6727 16.8606 13.289 21.7127C15.9052 26.568 8.48294 25.3687 13.8841 28.6132C13.8841 28.6132 13.3049 37.2088 20.8354 32.8332C27.6656 28.866 27.3633 23.6768 24.8648 20.1731C22.3663 16.6694 17.9549 12.7832 17.9549 12.7832Z" fill="#FBBFA7"/>
<path d="M18.6711 16.2577L15.918 14.219C15.918 14.219 14.6895 12.5174 19.6769 10.9519C24.6643 9.38639 35.7086 14.3584 31.0586 24.0949C26.4085 33.8314 27.7357 32.2205 27.7357 32.2205C27.7357 32.2205 23.283 31.501 21.9494 24.5389C21.9494 24.5389 22.099 17.8167 18.6711 16.2609V16.2577Z" fill="#C14F2A"/>
<path d="M27.9684 32.7554L17.8949 34.7779C17.8949 34.7779 16.5485 44.5889 12.2422 49.8202C7.93589 55.0515 17.9235 60.4902 18.4009 66.0391L50.3594 63.1739C50.3594 63.1739 43.0899 42.5826 32.4752 38.3172C32.4752 38.3172 29.5694 38.5765 27.9684 32.7586V32.7554Z" fill="#333333"/>
<path d="M32.1405 53.5022L39.7983 64.1171L31.8477 64.8301L32.1405 53.5022Z" fill="black"/>
<path d="M31.8247 15.9198L31.5783 15.9971C31.2827 16.0898 31.1168 16.4091 31.2079 16.7102L31.6895 18.3023C31.7805 18.6034 32.094 18.7723 32.3897 18.6795L32.6361 18.6023C32.9318 18.5095 33.0976 18.1903 33.0065 17.8892L32.525 16.297C32.4339 15.9959 32.1204 15.827 31.8247 15.9198Z" fill="black"/>
<path d="M35.911 41.5519C35.911 41.5519 32.0917 45.1075 24.7426 49.1525C17.7214 53.0192 21.8399 68 21.8399 68L60.4981 65.5497C60.4981 65.5497 57.0384 46.4526 52.3343 44.7575C47.6301 43.0623 41.3855 40.1809 41.3855 40.1809L35.9079 41.5519H35.911Z" fill="#286EF0"/>
<path d="M34.793 42.6151C34.793 42.6151 44.5578 47.788 46.216 53.5411C47.8743 59.2942 48.6795 66.3082 48.6795 66.3082L52.8267 66.172L50.2709 43.9764L44.039 41.4353L38.5996 38.3659C38.5996 38.3659 35.7001 40.9102 34.793 42.6119V42.6151Z" fill="#FCFFFF"/>
<path d="M50.4905 36.055L49.1156 37.1084C49.1156 37.1084 47.33 42.7253 47.8074 46.3166C48.2849 49.9078 41.0408 40.8163 35.9102 41.5553C35.9102 41.5553 39.0293 35.8573 38.275 31.2807C37.5207 26.7042 50.4905 36.0582 50.4905 36.0582V36.055Z" fill="#704C3C"/>
<path d="M51.4482 22.0141C51.4482 22.0141 56.1396 41.8112 49.5799 42.0057C43.0201 42.1969 38.23 37.9737 36.6927 29.9971C35.1554 22.0205 37.4662 21.8747 37.4662 21.8747L51.4482 22.0173V22.0141Z" fill="#98644C"/>
<path d="M39.9182 27.1967C39.9182 27.1967 56.3828 28.3539 52.2993 19.2785C48.2125 10.2032 17.2567 18.1279 38.5114 35.478C38.5114 35.478 42.4485 37.6139 39.9182 27.1967Z" fill="#000100"/>
<path d="M30.6562 59.4692L31.0127 67.4199L35.4368 67.1379L30.6562 59.4692Z" fill="#053177"/>
</g>
<defs>
<clipPath id="clip0_1304_5860">
<rect x="0.5" width="64" height="64" rx="32" fill="white"/>
</clipPath>
</defs>
</svg>
